<svg width="52" height="52" viewBox="0 0 52 52" fill="none" xmlns="http://www.w3.org/2000/svg">
<path d="M51.9239 27.9605V31.5122C51.3247 32.766 50.1326 32.2842 49.1011 32.4387C49.1011 33.1057 49.1135 33.7605 49.1011 34.4152C49.0826 35.2182 48.6379 35.6629 47.8411 35.6876C47.5631 35.7 47.2852 35.6876 47.0134 35.6876V43.0935C47.1987 43.0935 47.3469 43.0935 47.5013 43.0935C48.712 43.0997 49.1073 43.495 49.1073 44.6994C49.1073 45.2677 49.1073 45.8298 49.1073 46.4227C49.5767 46.4227 49.9658 46.4475 50.355 46.4227C51.1024 46.361 51.6274 46.6513 51.93 47.3369V50.7835C51.6089 51.4568 51.0777 51.6977 50.3365 51.6977C42.9862 51.6853 35.6359 51.6915 28.2856 51.6853C28.1312 51.6853 27.9767 51.6977 27.8285 51.673C27.4085 51.6112 27.1058 51.2591 27.1244 50.8762C27.1429 50.4808 27.4455 50.1844 27.8903 50.1535C28.057 50.1411 28.23 50.1535 28.3968 50.1535C35.5123 50.1535 42.6279 50.1535 49.7373 50.1535C49.9535 50.1535 50.1635 50.1535 50.3673 50.1535V47.9855H1.55893V50.1535C1.806 50.1535 2.02219 50.1535 2.23837 50.1535C9.45278 50.1535 16.6672 50.1535 23.8878 50.1535C24.0916 50.1535 24.2954 50.1473 24.4931 50.172C24.8822 50.2214 25.154 50.487 25.1169 50.8453C25.086 51.1109 24.8699 51.4135 24.6537 51.5927C24.5054 51.7162 24.2028 51.6915 23.9742 51.6915C16.5251 51.6915 9.06982 51.6915 1.6207 51.6915C1.50334 51.6915 1.38599 51.6915 1.26863 51.6915C0.502715 51.6421 0.0209317 51.1479 0.0147549 50.382C0.00857823 49.5173 0.0147549 48.6587 0.0147549 47.794C0.0147549 46.9292 0.496539 46.4413 1.3551 46.4351C1.83689 46.4351 2.31867 46.4351 2.83751 46.4351C2.83751 45.7001 2.82516 45.0453 2.83751 44.3844C2.85604 43.6123 3.33165 43.1367 4.10992 43.1058C4.37552 43.0935 4.64111 43.1058 4.91907 43.1058V35.7061C4.70906 35.7061 4.54229 35.7061 4.36934 35.7061C3.22665 35.7 2.83751 35.317 2.83751 34.1928C2.83751 33.6246 2.83751 33.0502 2.83751 32.414C2.31867 32.414 1.84924 32.4263 1.38599 32.414C0.490362 32.3831 0.0209317 31.9013 0.0209317 31.0118C0.0209317 30.2027 0.0209317 29.3874 0.0209317 28.5782C0.0209317 27.6146 0.471832 27.1699 1.45393 27.1576C2.09013 27.1576 2.73251 27.1576 3.39959 27.1576V18.8931C2.94252 18.8622 2.51632 18.8869 2.10866 18.7943C1.01538 18.5472 0.19388 17.6269 0.0332851 16.5521C-0.14584 15.3662 0.403888 14.3038 1.5404 13.6491C9.11306 9.2451 16.7042 4.87198 24.2831 0.486514C25.4319 -0.174395 26.5437 -0.155865 27.6803 0.505044C35.0985 4.79168 42.5167 9.0845 49.9473 13.3526C50.88 13.89 51.6336 14.52 51.9177 15.5948V16.7127C51.8806 16.7683 51.8374 16.8177 51.8189 16.8733C51.3371 18.2384 50.3612 18.9055 48.9343 18.8499C48.8046 18.8499 48.6811 18.8622 48.5452 18.8684V27.1452C49.132 27.1452 49.6879 27.1823 50.2376 27.139C50.985 27.0773 51.5533 27.3058 51.9239 27.9729V27.9605ZM1.5404 30.7957H50.3735V28.6647H49.7435C42.5476 28.6647 35.3456 28.6647 28.1497 28.6647C27.3714 28.6647 27.007 28.43 26.9885 27.9173C26.9699 27.3923 27.3529 27.1329 28.1559 27.1329C34.2214 27.1329 40.2869 27.1329 46.3525 27.1329H46.9269C46.9454 27.0032 46.9578 26.9476 46.9578 26.8981C46.9578 24.0445 46.964 21.1847 46.9454 18.331C46.9454 18.1519 46.7601 17.911 46.5934 17.8122C39.8484 13.9023 33.0972 10.011 26.3523 6.10115C26.062 5.93438 25.8581 5.94055 25.574 6.10115C18.8476 9.99865 12.1088 13.89 5.36997 17.7628C5.06731 17.9357 4.94995 18.121 4.95613 18.4731C4.96848 21.1785 4.9623 23.8777 4.9623 26.5831C4.9623 26.7437 4.98083 26.9105 4.99319 27.1205H5.62321C11.7073 27.1205 17.7913 27.1205 23.8692 27.1205C24.0545 27.1205 24.2398 27.1205 24.4251 27.1329C24.8637 27.1699 25.0984 27.4293 25.1355 27.8494C25.1725 28.2447 24.8575 28.5906 24.4437 28.64C24.2769 28.6585 24.1039 28.6462 23.9372 28.6462C16.6734 28.6462 9.40336 28.6462 2.13954 28.6462H1.5404V30.7771V30.7957ZM49.1135 17.3922C49.6755 17.3304 50.1326 17.0154 50.3117 16.5151C50.5403 15.8727 50.2994 15.3415 49.5397 14.903C42.0164 10.5546 34.487 6.21851 26.9699 1.86392C26.2843 1.46861 25.6667 1.46243 24.9749 1.86392C18.0693 5.86026 11.1575 9.84424 4.2458 13.8344C3.54166 14.2421 2.83751 14.6374 2.14572 15.0574C1.701 15.323 1.47864 15.7368 1.54658 16.2557C1.6207 16.7869 1.93571 17.2131 2.46073 17.2748C2.82516 17.3181 3.26988 17.2069 3.59725 17.0216C10.7808 12.8955 17.9581 8.76331 25.1231 4.60021C25.7284 4.24813 26.1855 4.23578 26.7908 4.58785C33.9249 8.73243 41.0714 12.8523 48.2178 16.9722C48.502 17.1389 48.817 17.2563 49.1196 17.3984L49.1135 17.3922ZM32.2819 32.4201C32.251 32.5004 32.2325 32.5313 32.2325 32.5622C32.2325 33.1366 32.2325 33.7111 32.2201 34.2855C32.2016 35.2244 31.7445 35.6753 30.8119 35.6938C30.5833 35.6938 30.3548 35.6938 30.1201 35.6938V43.075C30.2992 43.0811 30.4474 43.0935 30.5957 43.0935C31.7816 43.1058 32.214 43.532 32.214 44.7118C32.214 45.2677 32.214 45.8174 32.214 46.3857H36.5747C36.5933 46.3363 36.5994 46.3177 36.5994 46.2992C36.5994 45.6754 36.5994 45.0515 36.6118 44.4277C36.6241 43.6062 37.1183 43.1182 37.946 43.0935C38.193 43.0873 38.4401 43.0935 38.7057 43.0935V35.6938C38.5019 35.6938 38.3351 35.6938 38.1683 35.6938C37.0195 35.6876 36.6118 35.2799 36.6118 34.1434C36.6118 33.5752 36.6118 33.0069 36.6118 32.4263H32.2819V32.4201ZM15.3021 46.3919H19.6999C19.6999 45.7433 19.6876 45.1195 19.6999 44.5018C19.7185 43.5815 20.2064 43.1058 21.1206 43.0935C21.3491 43.0935 21.5777 43.0935 21.7877 43.0935V35.7123C21.6518 35.7061 21.553 35.6876 21.4541 35.6938C19.9841 35.8235 19.6196 35.0144 19.6938 33.8717C19.7247 33.3899 19.6938 32.9081 19.6938 32.4387H15.2959C15.2959 33.0502 15.2959 33.6184 15.2959 34.1928C15.2959 35.2614 14.8698 35.6814 13.7888 35.6876C13.5912 35.6876 13.3997 35.6876 13.1959 35.6876V43.0873C13.4182 43.0873 13.6221 43.0873 13.8197 43.0873C14.8327 43.0935 15.2959 43.5629 15.2959 44.5821C15.2959 45.1689 15.2959 45.7618 15.2959 46.3919H15.3021ZM45.4074 35.7308H40.3055V43.0626H45.4074V35.7308ZM11.6208 35.7308H6.50648V43.0503H11.6208V35.7308ZM28.4832 43.0688V35.737H23.4245V43.0688H28.4832ZM38.1869 32.4263V34.1249H47.5322V32.4263H38.1869ZM13.7394 44.6871H4.39405V46.398H13.7456V44.6871H13.7394ZM47.5322 46.4042V44.6809H38.1869V46.4042H47.5322ZM13.7271 34.1311V32.4325H4.38787V34.1311H13.7332H13.7271ZM30.6204 32.4448H21.3059V34.1311H30.6204V32.4448ZM21.3059 44.6686V46.398H30.608V44.6686H21.3059Z" fill="#282A74"/>
<path d="M12.5039 21.1414C12.5039 20.2334 12.5039 19.3193 12.5039 18.4113C12.5039 17.701 12.788 17.4292 13.4798 17.423C13.9863 17.423 14.4928 17.4169 14.9993 17.423C16.5249 17.4539 17.5194 18.9178 16.9573 20.3323C16.84 20.6226 16.9017 20.7646 17.087 20.9808C17.6923 21.6973 17.8344 22.525 17.4762 23.3897C17.1179 24.2545 16.4508 24.7671 15.512 24.8351C14.8264 24.8845 14.1284 24.8783 13.4366 24.8722C12.8004 24.866 12.5163 24.5757 12.5101 23.9333C12.4977 23.0068 12.5101 22.0803 12.5101 21.1476L12.5039 21.1414ZM14.0913 23.2909C14.2704 23.2971 14.3878 23.3094 14.5052 23.3094C14.7769 23.3094 15.0425 23.3094 15.3143 23.3033C15.7652 23.2786 16.1049 22.9759 16.1173 22.5559C16.1358 22.1112 15.8949 21.7776 15.4749 21.7159C15.024 21.6479 14.5546 21.6973 14.0913 21.6973V23.2909ZM14.0913 20.147C14.6163 20.0852 15.1722 20.3631 15.4996 19.8072C15.5861 19.659 15.5614 19.344 15.4564 19.2143C15.0858 18.7634 14.5731 19.0043 14.0913 18.961V20.1531V20.147Z" fill="#282A74"/>
<path d="M28.2923 20.7092C28.2923 21.8766 28.2923 22.8895 28.2923 23.9025C28.2923 24.4893 28.0081 24.8476 27.5449 24.8599C27.0569 24.8784 26.7666 24.5326 26.7666 23.8963C26.7666 22.0557 26.7666 20.215 26.7666 18.3744C26.7666 17.942 26.884 17.6023 27.3287 17.4664C27.7549 17.3367 28.0328 17.5652 28.2552 17.8988C29.0829 19.1032 29.9167 20.3077 30.8556 21.4874C30.8556 21.2774 30.8556 21.0736 30.8556 20.8636C30.8556 19.968 30.8371 19.0723 30.8556 18.1767C30.8618 17.7196 31.22 17.4046 31.64 17.417C32.0415 17.4293 32.3565 17.7382 32.3689 18.1767C32.4059 20.0668 32.4306 21.963 32.4492 23.8531C32.4492 24.2978 32.2453 24.6437 31.7944 24.7673C31.3744 24.8846 31.0779 24.6684 30.8494 24.3411C30.1267 23.3034 29.4102 22.2595 28.6876 21.2157C28.5949 21.0798 28.4961 20.9562 28.3046 20.703L28.2923 20.7092Z" fill="#282A74"/>
<path d="M19.9345 24.866C19.181 24.866 18.8474 24.3286 19.0698 23.7418C19.7183 22.0123 20.3793 20.2828 21.0402 18.5534C21.0958 18.4113 21.1513 18.2692 21.2008 18.1272C21.349 17.7072 21.627 17.4292 22.0902 17.4292C22.5535 17.4292 22.8314 17.7072 22.9858 18.121C23.5356 19.5849 24.0853 21.0488 24.6412 22.5126C24.7956 22.9203 24.9624 23.328 25.1044 23.7418C25.2712 24.2359 25.1106 24.6436 24.7153 24.8042C24.2829 24.9771 23.795 24.8042 23.6838 24.2854C23.5108 23.47 23.0352 23.2909 22.3126 23.4083C22.1952 23.4268 22.0717 23.4268 21.9605 23.4083C21.1946 23.2909 20.6387 23.4453 20.4657 24.3348C20.4163 24.5757 20.0642 24.7548 19.9469 24.866H19.9345ZM22.084 20.1284C21.8308 20.7955 21.6393 21.3082 21.4293 21.8579H22.7326C22.5226 21.302 22.3249 20.7832 22.0778 20.1284H22.084Z" fill="#282A74"/>
<path d="M36.9203 20.8697C37.68 21.7097 38.4274 22.5621 39.1933 23.3898C39.6133 23.8407 39.6936 24.2916 39.3662 24.6313C39.0327 24.9833 38.5818 24.9401 38.1247 24.5016C37.507 23.9148 36.8894 23.3156 36.1667 22.6177C36.1667 23.1365 36.1729 23.5318 36.1667 23.9209C36.1482 24.5139 35.864 24.8536 35.4008 24.8598C34.919 24.866 34.6102 24.5016 34.6102 23.8901C34.6102 22.0371 34.604 20.1779 34.6102 18.3248C34.6102 17.5836 35.1475 17.1266 35.6787 17.4416C35.9073 17.5775 36.0802 17.9172 36.1482 18.2013C36.2285 18.5349 36.1667 18.8993 36.1667 19.3811C36.7411 18.856 37.2229 18.4237 37.6985 17.9851C37.8221 17.8739 37.9394 17.7504 38.0691 17.6454C38.4459 17.3427 38.8536 17.3551 39.1562 17.6763C39.4465 17.9789 39.4404 18.436 39.113 18.7634C38.6065 19.2575 38.0753 19.727 37.5565 20.2087C37.2847 20.462 37.0129 20.7091 36.7411 20.9623C36.8029 20.9314 36.8647 20.9005 36.9203 20.8697Z" fill="#282A74"/>
<path d="M22.8685 11.9629C22.8438 10.2087 24.3138 8.72632 26.0742 8.72632C27.8098 8.72632 29.2675 10.1717 29.2861 11.9135C29.3046 13.6553 27.8284 15.1501 26.0742 15.1501C24.3324 15.1501 22.8932 13.7171 22.8685 11.9629ZM26.1174 10.289C25.1847 10.2705 24.4497 10.9561 24.425 11.8641C24.4003 12.8215 25.0921 13.5627 26.0309 13.5812C26.9883 13.5997 27.7172 12.8956 27.7234 11.9506C27.7295 11.0241 27.0378 10.3014 26.1174 10.2829V10.289Z" fill="#282A74"/>
</svg>
