<svg width="102" height="104" viewBox="0 0 102 104" fill="none" xmlns="http://www.w3.org/2000/svg">
<g filter="url(#filter0_d_353_486)">
<rect x="16.9238" y="0.118164" width="84.4879" height="84.4879" rx="15" transform="rotate(9.85511 16.9238 0.118164)" fill="#FAA51A"/>
<g filter="url(#filter1_d_353_486)">
<path d="M55.4901 27.3987L34.138 34.3065L33.4219 38.4289L72.5452 45.2254L73.2614 41.103M61.5335 47.5593L59.0269 61.9878L65.2043 63.0609L67.7108 48.6324M28.4088 67.2859L67.5322 74.0824L68.6064 67.8988L29.4831 61.1022M49.1787 45.413L46.6722 59.8415L52.8496 60.9146L55.3561 46.4862M36.824 43.2668L34.3175 57.6952L40.4948 58.7684L43.0014 44.3399L36.824 43.2668Z" fill="white"/>
</g>
</g>
<defs>
<filter id="filter0_d_353_486" x="0.806641" y="2.46172" width="101.015" height="101.015" filterUnits="userSpaceOnUse" color-interpolation-filters="sRGB">
<feFlood flood-opacity="0" result="BackgroundImageFix"/>
<feColorMatrix in="SourceAlpha" type="matrix" values="0 0 0 0 0 0 0 0 0 0 0 0 0 0 0 0 0 0 127 0" result="hardAlpha"/>
<feOffset dy="4"/>
<feGaussianBlur stdDeviation="2"/>
<feComposite in2="hardAlpha" operator="out"/>
<feColorMatrix type="matrix" values="0 0 0 0 0 0 0 0 0 0 0 0 0 0 0 0 0 0 0.25 0"/>
<feBlend mode="normal" in2="BackgroundImageFix" result="effect1_dropShadow_353_486"/>
<feBlend mode="normal" in="SourceGraphic" in2="effect1_dropShadow_353_486" result="shape"/>
</filter>
<filter id="filter1_d_353_486" x="24.4088" y="27.3987" width="52.8526" height="54.6837" filterUnits="userSpaceOnUse" color-interpolation-filters="sRGB">
<feFlood flood-opacity="0" result="BackgroundImageFix"/>
<feColorMatrix in="SourceAlpha" type="matrix" values="0 0 0 0 0 0 0 0 0 0 0 0 0 0 0 0 0 0 127 0" result="hardAlpha"/>
<feOffset dy="4"/>
<feGaussianBlur stdDeviation="2"/>
<feComposite in2="hardAlpha" operator="out"/>
<feColorMatrix type="matrix" values="0 0 0 0 0 0 0 0 0 0 0 0 0 0 0 0 0 0 0.25 0"/>
<feBlend mode="normal" in2="BackgroundImageFix" result="effect1_dropShadow_353_486"/>
<feBlend mode="normal" in="SourceGraphic" in2="effect1_dropShadow_353_486" result="shape"/>
</filter>
</defs>
</svg>
